<?xml version="1.0" encoding="UTF-8"?>
<svg xmlns="http://www.w3.org/2000/svg" xmlns:xlink="http://www.w3.org/1999/xlink" width="300px" height="338px" viewBox="0 0 300 337" version="1.1">
<defs>
<clipPath id="clip1">
  <path d="M 87.320312 84.398438 L 212.679688 84.398438 L 212.679688 252.601562 L 87.320312 252.601562 Z M 87.320312 84.398438 "/>
</clipPath>
</defs>
<g id="surface1">
<path style=" stroke:none;fill-rule:nonzero;fill:rgb(13.72549%,20.784314%,39.607843%);fill-opacity:1;" d="M 19.648438 212.625 L 23.144531 216.976562 L 21.398438 211.320312 C 20.960938 208.707031 17.902344 211.753906 19.648438 212.625 M 23.582031 210.011719 C 24.890625 212.1875 26.199219 214.367188 26.199219 216.542969 C 26.199219 219.589844 28.820312 220.894531 31.003906 221.765625 C 27.945312 218.28125 26.199219 208.707031 23.582031 210.011719 M 191.265625 25.464844 C 198.6875 25.464844 205.675781 24.59375 213.535156 26.332031 C 232.75 31.121094 248.910156 40.695312 259.824219 54.191406 L 290.394531 102.9375 C 291.703125 115.125 294.324219 128.621094 293.886719 143.417969 C 296.945312 143.417969 296.507812 139.066406 300 138.195312 C 296.507812 146.898438 294.757812 157.78125 293.886719 170.402344 C 291.703125 163.441406 293.886719 152.992188 294.324219 147.335938 C 291.265625 152.125 289.519531 148.640625 289.519531 146.464844 C 289.957031 142.984375 288.210938 143.417969 286.898438 142.109375 C 282.097656 137.757812 279.039062 132.972656 275.546875 125.574219 C 277.730469 119.914062 278.164062 111.644531 271.179688 107.289062 C 268.996094 105.984375 266.375 103.808594 265.066406 100.328125 C 263.320312 95.539062 260.261719 89.878906 261.136719 82.480469 C 261.570312 80.304688 254.585938 87.269531 250.65625 84.222656 C 233.625 72.472656 216.59375 58.980469 196.070312 47.660156 C 185.152344 47.660156 177.292969 43.742188 173.363281 38.953125 C 169.871094 34.601562 172.488281 28.945312 177.730469 28.507812 C 180.789062 28.507812 184.28125 27.636719 186.898438 29.378906 C 187.335938 27.640625 189.085938 25.464844 191.265625 25.464844 M 148.035156 15.449219 L 148.90625 15.886719 C 153.277344 16.757812 155.457031 22.851562 160.261719 20.675781 C 160.261719 23.722656 160.699219 26.769531 159.824219 28.945312 C 158.515625 32.425781 154.585938 32.425781 151.527344 32.425781 C 122.269531 30.6875 105.238281 42.875 87.335938 53.316406 C 82.53125 56.367188 77.292969 58.542969 73.363281 62.460938 C 54.585938 79.871094 34.0625 95.972656 29.257812 128.183594 L 25.328125 163.875 C 24.890625 167.792969 20.523438 171.710938 21.398438 176.5 L 24.453125 197.824219 C 21.394531 194.777344 19.648438 198.699219 20.523438 200.4375 C 20.960938 201.742188 22.707031 206.097656 25.328125 202.179688 C 28.820312 208.707031 32.316406 221.328125 37.117188 226.988281 C 51.964844 244.398438 71.179688 260.070312 86.898438 275.738281 C 90.828125 274.867188 93.886719 274.867188 94.761719 272.253906 C 96.070312 274.867188 93.449219 277.480469 91.265625 277.914062 C 98.253906 282.265625 106.113281 286.183594 116.59375 287.054688 C 130.132812 287.921875 142.796875 290.101562 154.585938 293.148438 C 160.699219 291.40625 166.8125 290.535156 173.363281 290.101562 C 175.546875 290.101562 176.855469 286.617188 179.476562 285.75 L 179.914062 281.394531 C 182.535156 285.3125 182.09375 280.089844 180.347656 277.480469 C 183.40625 280.089844 184.28125 282.265625 185.589844 284.007812 C 185.589844 282.703125 189.082031 277.914062 189.085938 283.570312 L 189.957031 277.914062 C 191.265625 277.042969 191.703125 282.703125 193.011719 278.785156 C 194.324219 274.867188 196.941406 277.914062 199.5625 276.605469 C 198.6875 278.347656 199.128906 281.832031 202.183594 279.65625 L 205.679688 276.605469 C 207.859375 281.832031 211.355469 279.65625 213.101562 278.785156 C 232.316406 266.597656 251.527344 252.234375 269.867188 237.871094 L 269.433594 243.527344 L 271.613281 236.5625 C 273.800781 238.738281 275.546875 237 276.417969 235.691406 C 279.039062 231.339844 282.53125 226.988281 288.210938 223.070312 C 281.222656 241.785156 272.925781 256.585938 262.445312 268.773438 L 258.078125 273.996094 C 258.078125 277.042969 257.207031 280.960938 253.710938 281.394531 C 251.964844 281.832031 248.46875 280.527344 245.851562 283.136719 C 244.542969 284.875 248.910156 288.359375 245.414062 285.75 C 242.359375 283.570312 239.300781 285.75 235.808594 286.617188 C 233.1875 287.492188 237.554688 290.101562 238.425781 291.84375 C 239.300781 293.582031 240.171875 295.324219 239.738281 297.5 L 234.933594 292.277344 C 229.257812 295.324219 225.765625 300.980469 220.960938 305.335938 C 218.777344 307.074219 219.652344 310.121094 219.652344 312.734375 C 216.59375 312.734375 213.101562 311.863281 211.355469 313.605469 C 210.042969 315.347656 210.480469 317.957031 210.480469 320.570312 C 206.113281 320.132812 205.675781 313.605469 201.746094 314.910156 C 197.816406 315.78125 193.449219 316.214844 189.957031 318.394531 C 192.578125 323.617188 185.589844 320.570312 186.464844 321.4375 C 179.914062 317.523438 174.238281 314.472656 167.25 317.085938 C 152.402344 312.300781 134.0625 314.472656 120.523438 316.214844 C 120.523438 314.042969 120.960938 311.863281 120.085938 311.429688 C 119.210938 313.605469 116.59375 312.734375 117.03125 312.734375 C 108.734375 307.074219 100.4375 303.59375 91.703125 298.804688 C 83.84375 299.675781 76.421875 295.757812 74.234375 293.582031 C 68.125 287.921875 61.132812 290.96875 55.457031 289.664062 C 43.234375 286.617188 38.863281 273.996094 37.554688 265.292969 C 36.679688 260.9375 33.1875 259.195312 31.878906 259.632812 C 26.199219 241.351562 17.46875 224.8125 10.480469 207.835938 C 8.734375 203.484375 9.171875 199.128906 9.171875 194.34375 C 11.351562 195.214844 13.539062 194.777344 13.101562 191.730469 C 10.917969 177.367188 5.675781 166.488281 0 156.042969 C 3.054688 141.242188 3.492188 123.832031 10.480469 110.773438 C 16.59375 99.023438 27.945312 92.925781 35.808594 82.917969 C 38.429688 79.4375 38.429688 74.648438 41.046875 71.601562 C 49.78125 62.894531 58.515625 53.753906 68.125 45.917969 C 72.488281 42.4375 77.726562 45.917969 84.277344 44.613281 C 86.464844 36.78125 95.195312 29.816406 103.492188 31.992188 C 106.988281 32.863281 113.972656 23.722656 116.15625 22.851562 C 119.652344 21.546875 117.90625 26.332031 117.90625 29.378906 C 126.203125 22.851562 137.554688 19.371094 148.035156 15.449219 "/>
<g clip-path="url(#clip1)" clip-rule="nonzero">
<path style=" stroke:none;fill-rule:nonzero;fill:rgb(13.72549%,20.784314%,39.607843%);fill-opacity:1;" d="M 96.964844 84.398438 L 159.882812 84.398438 C 174.027344 84.398438 184.925781 88.035156 192.574219 95.308594 C 200.191406 102.613281 204 112.914062 204 126.210938 C 204 133.257812 202.390625 139.746094 199.179688 145.671875 C 195.964844 151.597656 191.269531 156.324219 185.101562 159.847656 C 178.894531 163.375 171.296875 165.296875 162.296875 165.617188 L 161.8125 158.886719 C 167.4375 158.886719 173.222656 159.691406 179.171875 161.292969 C 185.117188 162.894531 190.628906 165.457031 195.707031 168.980469 C 200.753906 172.503906 204.851562 177.152344 208 182.917969 C 211.121094 188.683594 212.679688 195.8125 212.679688 204.300781 C 212.679688 213.433594 211.152344 221.074219 208.097656 227.226562 C 205.046875 233.410156 200.996094 238.375 195.949219 242.121094 C 190.871094 245.902344 185.246094 248.59375 179.074219 250.195312 C 172.871094 251.796875 166.632812 252.601562 160.367188 252.601562 L 96.964844 252.601562 C 94.234375 252.601562 91.949219 251.640625 90.117188 249.71875 C 88.253906 247.796875 87.320312 245.472656 87.320312 242.75 L 87.320312 94.011719 C 87.320312 91.289062 88.253906 88.996094 90.117188 87.140625 C 91.949219 85.3125 94.234375 84.398438 96.964844 84.398438 Z M 156.992188 103.382812 L 105.160156 103.382812 L 108.054688 99.058594 L 108.054688 158.886719 L 105.402344 155.765625 L 157.472656 155.765625 C 164.546875 155.765625 170.621094 153.476562 175.699219 148.890625 C 180.746094 144.34375 183.265625 137.582031 183.265625 128.613281 C 183.265625 120.601562 180.9375 114.386719 176.277344 109.964844 C 171.617188 105.578125 165.1875 103.382812 156.992188 103.382812 Z M 158.921875 174.988281 L 106.367188 174.988281 L 108.054688 173.304688 L 108.054688 236.019531 L 106.125 233.855469 L 159.640625 233.855469 C 169.125 233.855469 176.886719 231.457031 182.929688 226.648438 C 188.941406 221.84375 191.945312 214.394531 191.945312 204.300781 C 191.945312 196.453125 190.339844 190.398438 187.125 186.136719 C 183.910156 181.90625 179.78125 178.992188 174.734375 177.390625 C 169.65625 175.789062 164.382812 174.988281 158.921875 174.988281 Z M 158.921875 174.988281 "/>
</g>
</g>
</svg>
